<svg width="1025" height="718" viewBox="0 0 1025 718" fill="none" xmlns="http://www.w3.org/2000/svg">
<path d="M293.069 602.2C280.986 602.2 268.8 597.95 259.072 589.298L0 359L273.459 115.902C294.554 97.2144 326.912 99.0064 345.702 120.152C364.493 141.298 362.598 173.656 341.453 192.446L154.112 359L327.066 512.702C348.211 531.493 350.106 563.851 331.315 584.997C321.229 596.414 307.149 602.2 293.069 602.2ZM751.053 602.098L1024.51 359L765.44 128.702C744.294 109.912 711.936 111.806 693.197 132.952C674.406 154.098 676.301 186.456 697.446 205.246L870.4 359L683.059 525.502C661.914 544.293 660.019 576.651 678.81 597.797C688.896 609.214 702.976 615 717.056 615C729.139 615 741.325 610.75 751.053 602.098ZM511.539 674.648L613.939 60.248C618.598 32.344 599.757 5.976 571.853 1.3168C543.846 -3.3936 517.53 15.4992 512.973 43.4032L410.573 657.803C405.914 685.707 424.755 712.075 452.659 716.734C455.526 717.195 458.291 717.4 461.107 717.4C485.683 717.4 507.392 699.634 511.539 674.648Z" fill="#10A6E0"/>
</svg>
